<svg version="1.1" id="Layer_1" xmlns="http://www.w3.org/2000/svg" xmlns:xlink="http://www.w3.org/1999/xlink" x="0px" y="0px"
	 width="100%" viewBox="0 0 1024 1024" enable-background="new 0 0 1024 1024" xml:space="preserve">
<path fill="#000000" opacity="1.000000" stroke="none" 
	d="
M596.000000,1025.000000 
	C397.333344,1025.000000 199.166672,1025.000000 1.000000,1025.000000 
	C1.000000,683.666687 1.000000,342.333344 1.000000,1.000000 
	C342.333344,1.000000 683.666687,1.000000 1025.000000,1.000000 
	C1025.000000,342.333344 1025.000000,683.666687 1025.000000,1025.000000 
	C882.166687,1025.000000 739.333313,1025.000000 596.000000,1025.000000 
M76.025459,289.934021 
	C76.076591,323.855072 76.127724,357.776123 76.013321,392.204071 
	C76.006088,396.997650 75.883698,401.794678 76.028114,406.583679 
	C76.143417,410.407562 76.583649,414.221649 76.996819,418.808380 
	C76.987129,419.844391 76.977448,420.880432 76.441513,422.082153 
	C76.617859,422.413818 76.794197,422.745483 77.017860,423.544556 
	C77.017860,423.544556 77.164162,423.990967 76.998520,424.916656 
	C77.058228,443.554565 77.117935,462.192474 77.055893,481.730286 
	C77.370575,496.286804 77.905792,510.842560 77.956779,525.399963 
	C78.086906,562.555176 77.856956,599.712280 78.136711,636.865784 
	C78.186081,643.422852 79.721077,650.026733 81.098015,656.496582 
	C82.118187,661.290100 85.002998,665.478699 89.854813,666.797607 
	C97.331390,668.829956 104.889473,668.426453 112.483749,666.207886 
	C124.258835,662.768005 134.586029,656.544861 144.513412,649.777527 
	C154.822510,642.750061 164.727615,635.065308 174.352295,627.114685 
	C186.976303,616.686462 199.297638,605.876953 211.454330,594.904663 
	C216.736603,590.137024 221.345673,584.611450 226.152985,579.332153 
	C235.455353,569.116455 245.309387,559.322449 253.799423,548.465759 
	C268.346069,529.864075 282.479065,510.898621 295.944702,491.502014 
	C312.955353,466.999115 326.988403,440.685242 338.797913,413.332001 
	C347.868378,392.322968 356.591461,371.052277 363.618835,349.300201 
	C373.079681,320.015717 379.933350,290.004608 384.157715,259.401733 
	C386.875336,239.714310 389.211517,220.001740 388.797913,200.178070 
	C388.477722,184.830307 387.551483,169.286926 384.664612,154.258911 
	C381.719421,138.927505 377.408630,123.524849 371.162628,109.262733 
	C365.808472,97.037056 357.356720,86.028145 349.406952,75.113235 
	C338.668396,60.369431 324.320007,49.279236 308.605621,40.441807 
	C291.073608,30.582155 272.116516,24.031504 251.790451,23.110401 
	C238.654572,22.515131 225.378387,22.050299 212.331299,23.284389 
	C198.912292,24.553661 186.106445,29.047857 173.638718,34.604038 
	C153.135788,43.741051 135.745209,56.807587 121.607178,74.046097 
	C105.784691,93.338432 94.629921,115.330040 88.233299,139.352097 
	C84.374313,153.844238 82.022308,168.831421 80.191818,183.743301 
	C78.396774,198.366501 78.119766,213.176071 77.011604,228.713165 
	C77.062424,242.144150 77.113235,255.575150 77.014404,269.886749 
	C76.728783,273.255768 76.443161,276.624817 75.995834,280.840820 
	C76.054756,283.593353 76.113678,286.345917 76.025459,289.934021 
M710.926147,147.049789 
	C700.797791,152.342651 690.191284,156.899384 680.650208,163.096359 
	C665.347351,173.035690 650.647034,183.919876 635.882812,194.666779 
	C620.886597,205.582596 607.586426,218.378204 594.627136,231.657761 
	C576.562927,250.168335 558.695312,268.785858 543.023254,289.417938 
	C536.825684,297.576965 530.064331,305.310974 523.946716,313.526703 
	C514.092285,326.760895 504.345947,340.086395 494.941925,353.642456 
	C482.428406,371.680939 469.800568,389.671295 458.108490,408.240570 
	C443.466187,431.495331 429.461212,455.164307 415.665771,478.935699 
	C401.610168,503.155426 387.929688,527.600281 374.520508,552.184021 
	C369.014282,562.279053 367.367767,573.375122 370.936188,584.623291 
	C378.907623,609.750610 390.823822,633.218140 402.504181,656.701050 
	C411.522125,674.831299 421.865387,692.322388 432.061951,709.840027 
	C440.563049,724.444763 449.252197,738.981750 458.689240,752.988708 
	C468.899689,768.143616 479.524414,783.090393 490.960358,797.331421 
	C506.923401,817.210022 523.516357,836.606750 540.421448,855.694580 
	C548.531433,864.851685 557.789368,873.032349 566.867432,881.280945 
	C576.439209,889.978088 585.962830,898.839722 596.322083,906.532593 
	C611.997620,918.173340 628.259888,929.041260 644.490967,939.911987 
	C662.439636,951.933105 681.711304,961.689148 701.678284,969.714661 
	C723.843872,978.624023 746.504944,986.145142 770.256714,990.236511 
	C789.007568,993.466492 807.704956,996.469299 826.761414,995.936707 
	C839.599243,995.578003 852.616760,995.751404 865.193542,993.589966 
	C877.909302,991.404541 890.620422,987.696472 902.547424,982.757019 
	C921.906921,974.739441 938.492249,962.593994 947.927246,943.034607 
	C955.460144,927.418274 957.496643,910.918701 955.165283,893.607727 
	C953.421692,880.661621 949.687012,868.442017 944.216064,856.777710 
	C934.435364,835.924622 920.809326,817.559204 905.154175,800.841858 
	C889.464722,784.087891 873.049988,767.986572 854.625793,754.160278 
	C837.021057,740.948853 819.536377,727.544128 801.455566,715.008179 
	C773.910339,695.910034 744.873962,679.150818 715.117371,663.789673 
	C690.291992,650.974182 664.864014,639.320984 639.622009,627.323059 
	C635.613403,625.417725 631.047180,624.706055 626.976990,622.904297 
	C622.697266,621.009827 618.912048,617.902222 614.552246,616.300293 
	C580.280701,603.708008 545.915833,591.370239 511.597229,578.905884 
	C502.413757,575.570435 493.194031,572.298157 484.197479,568.506714 
	C481.445892,567.347046 479.382843,564.553467 477.004517,562.508240 
	C479.166931,560.727661 481.270477,558.867249 483.521576,557.206970 
	C484.386139,556.569336 485.575714,556.353394 486.636414,556.003540 
	C505.493134,549.783508 524.462341,543.882996 543.183289,537.278442 
	C565.080872,529.553345 586.880188,521.516968 608.501160,513.051086 
	C626.374146,506.052795 644.193604,498.801544 661.544067,490.617767 
	C678.862671,482.449005 695.741455,473.292999 712.496277,463.998779 
	C730.197815,454.179382 747.791809,444.111969 764.953003,433.385406 
	C789.846985,417.825439 814.019897,401.180511 836.335693,381.989380 
	C845.010620,374.529175 854.318909,367.741089 862.500183,359.784576 
	C879.417542,343.332001 896.937012,327.332153 910.534607,307.840240 
	C918.735352,296.084503 927.158630,284.321198 933.799561,271.677643 
	C944.114380,252.039474 949.127502,230.969330 948.230591,208.373093 
	C947.612366,192.798096 942.240845,179.276093 934.030823,166.771484 
	C926.752930,155.686447 916.155701,147.675064 904.792725,141.068665 
	C882.951233,128.370102 858.931885,122.994186 833.942688,122.139015 
	C821.216980,121.703522 808.417603,122.293991 795.700867,123.152260 
	C788.402527,123.644844 781.203003,125.601837 773.114746,127.001114 
	C764.985168,129.027985 756.855652,131.054871 747.830383,133.045441 
	C747.549988,133.148895 747.269653,133.252350 747.031799,133.409286 
	C747.031799,133.409286 746.973755,133.365021 746.338318,133.163315 
	C736.894714,136.834213 727.451050,140.505112 717.312927,144.173187 
	C715.453125,145.142853 713.593262,146.112503 710.926147,147.049789 
M87.989296,875.575500 
	C90.874741,892.546875 96.259819,908.704956 105.770714,923.066162 
	C112.558800,933.316162 119.669571,943.657166 128.299347,952.296265 
	C136.811096,960.817322 147.018845,967.857361 157.183914,974.468750 
	C177.727539,987.830322 200.791794,994.372498 225.060898,995.779236 
	C236.145264,996.421814 247.386017,994.885132 258.524170,993.956848 
	C274.618164,992.615601 289.578247,987.149902 303.818146,979.917786 
	C315.680511,973.892944 326.392120,966.200195 336.546234,957.367371 
	C348.956604,946.571899 358.478088,933.854065 366.543365,919.860535 
	C377.773132,900.376587 383.034088,878.982361 384.887085,856.798584 
	C386.246796,840.520447 384.588440,824.227905 380.609253,808.448975 
	C375.090973,786.566956 365.403320,766.660522 350.776581,749.086487 
	C337.168427,732.736267 320.736938,720.175110 302.020874,710.702271 
	C283.982544,701.572449 264.445374,696.793762 244.257416,696.205078 
	C231.623703,695.836670 218.783951,696.363220 206.310638,698.275452 
	C191.749664,700.507812 177.776672,705.495605 164.742630,712.686707 
	C147.481934,722.209839 131.674728,733.574646 119.369583,749.201477 
	C108.660477,762.801453 99.663689,777.345886 93.892807,793.876709 
	C86.848450,814.055481 84.266335,834.769836 85.123047,855.955627 
	C85.376701,862.227966 86.973938,868.445923 87.989296,875.575500 
z"/>
<path fill="#FFFFFF" opacity="1.000000" stroke="none" 
	d="
M773.958984,126.899597 
	C781.203003,125.601837 788.402527,123.644844 795.700867,123.152260 
	C808.417603,122.293991 821.216980,121.703522 833.942688,122.139015 
	C858.931885,122.994186 882.951233,128.370102 904.792725,141.068665 
	C916.155701,147.675064 926.752930,155.686447 934.030823,166.771484 
	C942.240845,179.276093 947.612366,192.798096 948.230591,208.373093 
	C949.127502,230.969330 944.114380,252.039474 933.799561,271.677643 
	C927.158630,284.321198 918.735352,296.084503 910.534607,307.840240 
	C896.937012,327.332153 879.417542,343.332001 862.500183,359.784576 
	C854.318909,367.741089 845.010620,374.529175 836.335693,381.989380 
	C814.019897,401.180511 789.846985,417.825439 764.953003,433.385406 
	C747.791809,444.111969 730.197815,454.179382 712.496277,463.998779 
	C695.741455,473.292999 678.862671,482.449005 661.544067,490.617767 
	C644.193604,498.801544 626.374146,506.052795 608.501160,513.051086 
	C586.880188,521.516968 565.080872,529.553345 543.183289,537.278442 
	C524.462341,543.882996 505.493134,549.783508 486.636414,556.003540 
	C485.575714,556.353394 484.386139,556.569336 483.521576,557.206970 
	C481.270477,558.867249 479.166931,560.727661 477.004517,562.508179 
	C479.382843,564.553467 481.445892,567.347046 484.197479,568.506714 
	C493.194031,572.298157 502.413757,575.570435 511.597229,578.905884 
	C545.915833,591.370239 580.280701,603.708008 614.552246,616.300293 
	C618.912048,617.902222 622.697266,621.009827 626.976990,622.904297 
	C631.047180,624.706055 635.613403,625.417725 639.622009,627.323059 
	C664.864014,639.320984 690.291992,650.974182 715.117371,663.789673 
	C744.873962,679.150818 773.910339,695.910034 801.455566,715.008179 
	C819.536377,727.544128 837.021057,740.948853 854.625793,754.160278 
	C873.049988,767.986572 889.464722,784.087891 905.154175,800.841858 
	C920.809326,817.559204 934.435364,835.924622 944.216064,856.777710 
	C949.687012,868.442017 953.421692,880.661621 955.165283,893.607727 
	C957.496643,910.918701 955.460144,927.418274 947.927246,943.034607 
	C938.492249,962.593994 921.906921,974.739441 902.547424,982.757019 
	C890.620422,987.696472 877.909302,991.404541 865.193542,993.589966 
	C852.616760,995.751404 839.599243,995.578003 826.761414,995.936707 
	C807.704956,996.469299 789.007568,993.466492 770.256714,990.236511 
	C746.504944,986.145142 723.843872,978.624023 701.678284,969.714661 
	C681.711304,961.689148 662.439636,951.933105 644.490967,939.911987 
	C628.259888,929.041260 611.997620,918.173340 596.322083,906.532593 
	C585.962830,898.839722 576.439209,889.978088 566.867432,881.280945 
	C557.789368,873.032349 548.531433,864.851685 540.421448,855.694580 
	C523.516357,836.606750 506.923401,817.210022 490.960358,797.331421 
	C479.524414,783.090393 468.899689,768.143616 458.689240,752.988708 
	C449.252197,738.981750 440.563049,724.444763 432.061951,709.840027 
	C421.865387,692.322388 411.522125,674.831299 402.504181,656.701050 
	C390.823822,633.218140 378.907623,609.750610 370.936188,584.623291 
	C367.367767,573.375122 369.014282,562.279053 374.520508,552.184021 
	C387.929688,527.600281 401.610168,503.155426 415.665771,478.935699 
	C429.461212,455.164307 443.466187,431.495331 458.108490,408.240570 
	C469.800568,389.671295 482.428406,371.680939 494.941925,353.642456 
	C504.345947,340.086395 514.092285,326.760895 523.946716,313.526703 
	C530.064331,305.310974 536.825684,297.576965 543.023254,289.417938 
	C558.695312,268.785858 576.562927,250.168335 594.627136,231.657761 
	C607.586426,218.378204 620.886597,205.582596 635.882812,194.666779 
	C650.647034,183.919876 665.347351,173.035690 680.650208,163.096359 
	C690.191284,156.899384 700.797791,152.342651 711.395447,147.451660 
	C712.778137,148.289993 714.320068,149.282135 714.504150,149.073914 
	C715.826538,147.577957 716.873230,145.838318 718.007446,144.176025 
	C727.451050,140.505112 736.894714,136.834213 746.756836,133.487122 
	C747.309509,133.889969 747.443665,133.969025 747.577759,134.048080 
	C747.381592,133.817322 747.185486,133.586563 746.989380,133.355804 
	C747.269653,133.252350 747.549988,133.148895 748.336670,133.422241 
	C748.938782,134.111801 749.088745,134.704346 749.122742,134.697769 
	C757.347229,133.106415 765.569153,131.498856 773.754822,129.724091 
	C774.014771,129.667740 773.899353,127.880135 773.958984,126.899597 
z"/>
<path fill="#FFFFFF" opacity="1.000000" stroke="none" 
	d="
M77.164154,423.990967 
	C77.164162,423.990967 77.017860,423.544556 77.006454,423.020599 
	C76.985954,422.303253 76.976860,422.109833 76.967758,421.916443 
	C76.977448,420.880432 76.987129,419.844391 77.338310,418.365662 
	C78.452713,416.295349 79.891861,414.663116 79.880692,413.040894 
	C79.837364,406.748932 79.063942,400.461029 79.044868,394.170135 
	C78.947342,362.006683 79.017044,329.842743 78.957512,297.679138 
	C78.954010,295.783661 78.332909,293.889282 77.999619,291.620728 
	C78.000252,290.499664 78.000488,289.752289 78.289139,288.725830 
	C78.125114,285.527740 81.782806,281.431976 76.157547,279.993835 
	C76.443161,276.624817 76.728783,273.255768 77.453789,269.363495 
	C78.594284,267.254547 79.876282,265.678467 79.902779,264.081573 
	C80.082298,253.262497 80.088409,242.437180 79.872513,231.619431 
	C79.847450,230.363480 78.116562,229.141541 77.176514,227.903839 
	C78.119766,213.176071 78.396774,198.366501 80.191818,183.743301 
	C82.022308,168.831421 84.374313,153.844238 88.233299,139.352097 
	C94.629921,115.330040 105.784691,93.338432 121.607178,74.046097 
	C135.745209,56.807587 153.135788,43.741051 173.638718,34.604038 
	C186.106445,29.047857 198.912292,24.553661 212.331299,23.284389 
	C225.378387,22.050299 238.654572,22.515131 251.790451,23.110401 
	C272.116516,24.031504 291.073608,30.582155 308.605621,40.441807 
	C324.320007,49.279236 338.668396,60.369431 349.406952,75.113235 
	C357.356720,86.028145 365.808472,97.037056 371.162628,109.262733 
	C377.408630,123.524849 381.719421,138.927505 384.664612,154.258911 
	C387.551483,169.286926 388.477722,184.830307 388.797913,200.178070 
	C389.211517,220.001740 386.875336,239.714310 384.157715,259.401733 
	C379.933350,290.004608 373.079681,320.015717 363.618835,349.300201 
	C356.591461,371.052277 347.868378,392.322968 338.797913,413.332001 
	C326.988403,440.685242 312.955353,466.999115 295.944702,491.502014 
	C282.479065,510.898621 268.346069,529.864075 253.799423,548.465759 
	C245.309387,559.322449 235.455353,569.116455 226.152985,579.332153 
	C221.345673,584.611450 216.736603,590.137024 211.454330,594.904663 
	C199.297638,605.876953 186.976303,616.686462 174.352295,627.114685 
	C164.727615,635.065308 154.822510,642.750061 144.513412,649.777527 
	C134.586029,656.544861 124.258835,662.768005 112.483749,666.207886 
	C104.889473,668.426453 97.331390,668.829956 89.854813,666.797607 
	C85.002998,665.478699 82.118187,661.290100 81.098015,656.496582 
	C79.721077,650.026733 78.186081,643.422852 78.136711,636.865784 
	C77.856956,599.712280 78.086906,562.555176 77.956779,525.399963 
	C77.905792,510.842560 77.370575,496.286804 77.628181,481.305359 
	C78.797516,479.671722 79.905907,478.466614 79.914452,477.253784 
	C80.031334,460.672760 80.054024,444.090057 79.876495,427.510132 
	C79.863831,426.327545 78.108948,425.163605 77.164154,423.990967 
z"/>
<path fill="#FFFFFF" opacity="1.000000" stroke="none" 
	d="
M87.972397,875.132202 
	C86.973938,868.445923 85.376701,862.227966 85.123047,855.955627 
	C84.266335,834.769836 86.848450,814.055481 93.892807,793.876709 
	C99.663689,777.345886 108.660477,762.801453 119.369583,749.201477 
	C131.674728,733.574646 147.481934,722.209839 164.742630,712.686707 
	C177.776672,705.495605 191.749664,700.507812 206.310638,698.275452 
	C218.783951,696.363220 231.623703,695.836670 244.257416,696.205078 
	C264.445374,696.793762 283.982544,701.572449 302.020874,710.702271 
	C320.736938,720.175110 337.168427,732.736267 350.776581,749.086487 
	C365.403320,766.660522 375.090973,786.566956 380.609253,808.448975 
	C384.588440,824.227905 386.246796,840.520447 384.887085,856.798584 
	C383.034088,878.982361 377.773132,900.376587 366.543365,919.860535 
	C358.478088,933.854065 348.956604,946.571899 336.546234,957.367371 
	C326.392120,966.200195 315.680511,973.892944 303.818146,979.917786 
	C289.578247,987.149902 274.618164,992.615601 258.524170,993.956848 
	C247.386017,994.885132 236.145264,996.421814 225.060898,995.779236 
	C200.791794,994.372498 177.727539,987.830322 157.183914,974.468750 
	C147.018845,967.857361 136.811096,960.817322 128.299347,952.296265 
	C119.669571,943.657166 112.558800,933.316162 105.770714,923.066162 
	C96.259819,908.704956 90.874741,892.546875 87.972397,875.132202 
z"/>
<path fill="#FFFDFF" opacity="1.000000" stroke="none" 
	d="
M78.000725,289.004883 
	C78.000488,289.752289 78.000252,290.499664 77.999893,292.090057 
	C77.999016,323.342010 78.041046,353.751190 77.918762,384.159668 
	C77.908646,386.674438 76.785080,389.184784 76.178848,391.697174 
	C76.127724,357.776123 76.076591,323.855072 76.556068,289.493042 
	C77.391357,289.036346 77.696045,289.020630 78.000725,289.004883 
z"/>
<path fill="#F8F5F9" opacity="1.000000" stroke="none" 
	d="
M76.096085,391.950623 
	C76.785080,389.184784 77.908646,386.674438 77.918762,384.159668 
	C78.041046,353.751190 77.999016,323.342010 77.999496,292.463745 
	C78.332909,293.889282 78.954010,295.783661 78.957512,297.679138 
	C79.017044,329.842743 78.947342,362.006683 79.044868,394.170135 
	C79.063942,400.461029 79.837364,406.748932 79.880692,413.040894 
	C79.891861,414.663116 78.452713,416.295349 77.279732,417.981506 
	C76.583649,414.221649 76.143417,410.407562 76.028114,406.583679 
	C75.883698,401.794678 76.006088,396.997650 76.096085,391.950623 
z"/>
<path fill="#FAF1FA" opacity="1.000000" stroke="none" 
	d="
M77.081337,424.453796 
	C78.108948,425.163605 79.863831,426.327545 79.876495,427.510132 
	C80.054024,444.090057 80.031334,460.672760 79.914452,477.253784 
	C79.905907,478.466614 78.797516,479.671722 77.689056,480.855408 
	C77.117935,462.192474 77.058228,443.554565 77.081337,424.453796 
z"/>
<path fill="#FBF4FB" opacity="1.000000" stroke="none" 
	d="
M77.094063,228.308502 
	C78.116562,229.141541 79.847450,230.363480 79.872513,231.619431 
	C80.088409,242.437180 80.082298,253.262497 79.902779,264.081573 
	C79.876282,265.678467 78.594284,267.254547 77.528610,268.923187 
	C77.113235,255.575150 77.062424,242.144150 77.094063,228.308502 
z"/>
<path fill="#FBF5FB" opacity="1.000000" stroke="none" 
	d="
M773.536865,126.950363 
	C773.899353,127.880135 774.014771,129.667740 773.754822,129.724091 
	C765.569153,131.498856 757.347229,133.106415 749.122742,134.697769 
	C749.088745,134.704346 748.938782,134.111801 748.784546,133.440399 
	C756.855652,131.054871 764.985168,129.027985 773.536865,126.950363 
z"/>
<path fill="#F8F5F9" opacity="1.000000" stroke="none" 
	d="
M78.289139,288.725830 
	C77.696045,289.020630 77.391357,289.036346 76.629639,289.075256 
	C76.113678,286.345917 76.054756,283.593353 76.076691,280.417328 
	C81.782806,281.431976 78.125114,285.527740 78.289139,288.725830 
z"/>
<path fill="#F9F4F8" opacity="1.000000" stroke="none" 
	d="
M717.660156,144.174591 
	C716.873230,145.838318 715.826538,147.577957 714.504150,149.073914 
	C714.320068,149.282135 712.778137,148.289993 711.799072,147.467834 
	C713.593262,146.112503 715.453125,145.142853 717.660156,144.174591 
z"/>
<path fill="#FBF5FB" opacity="1.000000" stroke="none" 
	d="
M747.010620,133.382538 
	C747.185486,133.586563 747.381592,133.817322 747.577759,134.048080 
	C747.443665,133.969025 747.309509,133.889969 747.074585,133.587967 
	C746.973755,133.365021 747.031799,133.409286 747.010620,133.382538 
z"/>
<path fill="#FAF1FA" opacity="1.000000" stroke="none" 
	d="
M76.704636,421.999298 
	C76.976860,422.109833 76.985954,422.303253 76.982803,422.786896 
	C76.794197,422.745483 76.617859,422.413818 76.704636,421.999298 
z"/>
</svg>